<svg xmlns="http://www.w3.org/2000/svg" viewBox="0 0 96 96" role="img" aria-labelledby="title desc">
  <title id="title">Enock Plumbing Solutions logo</title>
  <desc id="desc">A water droplet, pipe and wrench mark for Enock Plumbing Solutions.</desc>
  <defs>
    <linearGradient id="brandGradient" x1="16" y1="12" x2="82" y2="86" gradientUnits="userSpaceOnUse">
      <stop offset="0" stop-color="#0f766e"/>
      <stop offset="0.58" stop-color="#0284c7"/>
      <stop offset="1" stop-color="#f59e0b"/>
    </linearGradient>
    <filter id="softShadow" x="-20%" y="-20%" width="140%" height="140%">
      <feDropShadow dx="0" dy="8" stdDeviation="8" flood-color="#0f172a" flood-opacity=".18"/>
    </filter>
  </defs>
  <rect width="96" height="96" rx="22" fill="url(#brandGradient)" filter="url(#softShadow)"/>
  <path d="M48 17c10 12 20 24 20 38 0 13-9 23-20 23S28 68 28 55c0-14 10-26 20-38Z" fill="#fff" opacity=".96"/>
  <path d="M39 57c0 5 4 9 9 9 4 0 8-3 9-7" fill="none" stroke="#0f766e" stroke-width="5" stroke-linecap="round"/>
  <path d="M31 36h18c6 0 10 4 10 10v6" fill="none" stroke="#0f172a" stroke-width="6" stroke-linecap="round" stroke-linejoin="round" opacity=".85"/>
  <path d="M28 36h12" fill="none" stroke="#f59e0b" stroke-width="6" stroke-linecap="round"/>
  <path d="M64 27 76 15" fill="none" stroke="#fff" stroke-width="5" stroke-linecap="round"/>
  <path d="M69 16h8v8" fill="none" stroke="#fff" stroke-width="5" stroke-linecap="round" stroke-linejoin="round"/>
  <circle cx="31" cy="36" r="4" fill="#fff"/>
</svg>
